<svg xmlns="http://www.w3.org/2000/svg"  viewBox="0 0 50 50" width="50px" height="50px"><path d="M 39.671875 7.0097656 C 38.975261 7.0097387 38.277921 7.2736075 37.755859 7.8027344 L 20.84375 24.962891 L 12.263672 16.257812 C 11.728948 15.715387 11.01621 15.443359 10.302734 15.443359 C 9.5892592 15.443359 8.8765211 15.71534 8.3417969 16.257812 L 8.3398438 16.257812 L 1.8066406 22.888672 C 0.73726482 23.973546 0.73726481 25.741298 1.8066406 26.826172 L 18.880859 44.152344 C 18.897122 44.168842 18.917006 44.179316 18.933594 44.195312 C 19.053365 44.31081 19.177897 44.418472 19.3125 44.507812 C 20.362351 45.237459 21.837266 45.135698 22.763672 44.195312 L 22.804688 44.152344 L 28.464844 38.412109 L 29.341797 37.521484 L 48.214844 18.373047 C 49.258606 17.313589 49.257555 15.586099 48.212891 14.527344 L 48.214844 14.527344 L 41.585938 7.8027344 C 41.064239 7.2731795 40.368489 7.0097926 39.671875 7.0097656 z M 39.671875 8.9902344 C 39.84617 8.9903414 40.019807 9.0625861 40.162109 9.2070312 L 46.789062 15.931641 L 46.791016 15.931641 C 47.076398 16.220886 47.075347 16.680161 46.789062 16.970703 L 27.917969 36.119141 L 27.916016 36.117188 L 21.380859 42.748047 C 21.07665 43.056666 20.637922 43.057734 20.328125 42.761719 L 13.730469 36.066406 C 13.587777 35.921784 13.515732 35.735632 13.515625 35.548828 C 13.515572 35.455426 13.5346 35.361688 13.570312 35.273438 C 13.606025 35.185187 13.658909 35.101932 13.730469 35.029297 L 39.179688 9.2070312 C 39.322626 9.0621582 39.49758 8.9901274 39.671875 8.9902344 z M 10.302734 17.423828 C 10.493651 17.423828 10.684568 17.50263 10.839844 17.660156 L 19.439453 26.386719 L 12.306641 33.625 L 12.304688 33.625 C 12.132079 33.800204 11.998278 33.997428 11.882812 34.203125 L 3.2304688 25.423828 C 2.9198446 25.108702 2.9198446 24.608095 3.2304688 24.292969 L 3.2304688 24.291016 L 9.765625 17.660156 C 9.920901 17.50263 10.111818 17.423828 10.302734 17.423828 z"/></svg>